<svg width="809" height="213" viewBox="0 0 809 213" fill="none" xmlns="http://www.w3.org/2000/svg">
<path d="M232 44H273.549C279.51 44 284.769 44.8774 289.327 46.6323C294.002 48.3872 297.859 50.727 300.898 53.6518C303.936 56.5766 306.215 60.0279 307.735 64.0056C309.371 67.9833 310.189 72.1365 310.189 76.4652C310.189 82.7827 309.02 88.0474 306.683 92.2591C304.462 96.3538 301.307 99.7465 297.216 102.437C303.41 104.777 308.495 108.462 312.468 113.493C316.442 118.407 318.429 125.075 318.429 133.499C318.429 139.114 317.377 144.145 315.273 148.591C313.17 152.919 310.248 156.604 306.508 159.646C302.768 162.571 298.268 164.794 293.009 166.315C287.749 167.836 281.906 168.596 275.477 168.596H232V44ZM273.198 97.6992C279.86 97.6992 285.003 95.8858 288.626 92.2591C292.366 88.5153 294.236 83.8357 294.236 78.2201C294.236 75.6462 293.768 73.1894 292.833 70.8496C291.898 68.3928 290.496 66.2869 288.626 64.532C286.873 62.7772 284.652 61.3733 281.964 60.3203C279.393 59.2674 276.471 58.7409 273.198 58.7409H247.953V97.6992H273.198ZM277.406 153.855C285.821 153.855 292.074 151.866 296.164 147.889C300.255 143.911 302.3 138.88 302.3 132.797C302.3 126.713 300.255 121.624 296.164 117.529C292.074 113.435 285.821 111.387 277.406 111.387H247.953V153.855H277.406Z" fill="black"/>
<path d="M409.909 159.822C406.169 163.214 401.903 165.788 397.111 167.543C392.436 169.181 387.411 170 382.035 170C375.606 170 369.646 168.83 364.153 166.49C358.66 164.15 353.926 160.992 349.952 157.014C345.979 152.919 342.882 148.123 340.661 142.624C338.44 137.008 337.33 131.042 337.33 124.724C337.33 118.407 338.44 112.499 340.661 107C342.882 101.384 345.979 96.5877 349.952 92.61C353.926 88.5153 358.66 85.2981 364.153 82.9582C369.646 80.6184 375.606 79.4485 382.035 79.4485C387.411 79.4485 392.436 80.3259 397.111 82.0808C401.903 83.7187 406.169 86.234 409.909 89.6268V80.8524H424.986V168.596H409.909V159.822ZM382.385 155.786C388.696 155.786 394.19 154.44 398.864 151.749C403.656 149.059 407.338 145.666 409.909 141.571V107.877C407.338 103.783 403.656 100.39 398.864 97.6992C394.19 95.0084 388.696 93.663 382.385 93.663C378.061 93.663 374.087 94.4819 370.464 96.1198C366.958 97.6407 363.861 99.805 361.172 102.613C358.601 105.421 356.556 108.755 355.036 112.616C353.634 116.359 352.933 120.396 352.933 124.724C352.933 129.053 353.634 133.148 355.036 137.008C356.556 140.752 358.601 144.028 361.172 146.836C363.861 149.643 366.958 151.866 370.464 153.504C374.087 155.025 378.061 155.786 382.385 155.786Z" fill="black"/>
<path d="M516.177 116.455C516.177 103.772 505.895 93.4894 493.211 93.4894V93.4894C480.528 93.4894 470.246 103.772 470.246 116.455V168.596H455.169V116.967C455.169 95.9563 472.201 78.9239 493.211 78.9239V78.9239C514.222 78.9239 531.254 95.9563 531.254 116.967V168.596H516.177V116.455Z" fill="black"/>
<path d="M600.496 170C593.951 170 587.932 168.83 582.439 166.49C576.946 164.15 572.212 160.933 568.238 156.838C564.265 152.744 561.109 147.947 558.772 142.448C556.551 136.95 555.441 131.042 555.441 124.724C555.441 118.407 556.551 112.499 558.772 107C561.109 101.501 564.265 96.7047 568.238 92.61C572.212 88.5153 576.946 85.2981 582.439 82.9582C587.932 80.6184 593.951 79.4485 600.496 79.4485C607.859 79.4485 614.287 80.7939 619.78 83.4847C625.39 86.0585 630.124 89.3343 633.98 93.312L624.338 103.841C621.533 101.033 618.144 98.6351 614.17 96.6462C610.313 94.6574 605.755 93.663 600.496 93.663C596.171 93.663 592.198 94.4819 588.575 96.1198C585.068 97.6407 581.971 99.805 579.283 102.613C576.712 105.421 574.667 108.755 573.147 112.616C571.745 116.359 571.043 120.396 571.043 124.724C571.043 129.053 571.745 133.148 573.147 137.008C574.667 140.752 576.712 144.028 579.283 146.836C581.971 149.643 585.068 151.866 588.575 153.504C592.198 155.025 596.171 155.786 600.496 155.786C605.755 155.786 610.313 154.791 614.17 152.802C618.144 150.813 621.533 148.415 624.338 145.607L633.98 156.137C630.124 160.114 625.39 163.448 619.78 166.139C614.287 168.713 607.859 170 600.496 170Z" fill="black"/>
<path d="M693.9 170C687.239 170 681.103 168.83 675.493 166.49C670 164.15 665.208 160.933 661.117 156.838C657.143 152.744 653.988 147.947 651.65 142.448C649.43 136.95 648.319 131.042 648.319 124.724C648.319 118.407 649.43 112.499 651.65 107C653.988 101.501 657.143 96.7047 661.117 92.61C665.208 88.5153 670 85.2981 675.493 82.9582C681.103 80.6184 687.239 79.4485 693.9 79.4485C700.445 79.4485 706.465 80.6184 711.958 82.9582C717.568 85.2981 722.359 88.5153 726.333 92.61C730.424 96.7047 733.579 101.501 735.8 107C738.138 112.499 739.306 118.407 739.306 124.724C739.306 131.042 738.138 136.95 735.8 142.448C733.579 147.947 730.424 152.744 726.333 156.838C722.359 160.933 717.568 164.15 711.958 166.49C706.465 168.83 700.445 170 693.9 170ZM693.9 155.786C698.342 155.786 702.374 155.025 705.997 153.504C709.737 151.866 712.893 149.643 715.464 146.836C718.152 144.028 720.197 140.752 721.6 137.008C723.002 133.148 723.703 129.053 723.703 124.724C723.703 120.396 723.002 116.359 721.6 112.616C720.197 108.755 718.152 105.421 715.464 102.613C712.893 99.805 709.737 97.6407 705.997 96.1198C702.374 94.4819 698.342 93.663 693.9 93.663C689.459 93.663 685.369 94.4819 681.629 96.1198C678.005 97.6407 674.85 99.805 672.162 102.613C669.59 105.421 667.545 108.755 666.026 112.616C664.623 116.359 663.922 120.396 663.922 124.724C663.922 129.053 664.623 133.148 666.026 137.008C667.545 140.752 669.59 144.028 672.162 146.836C674.85 149.643 678.005 151.866 681.629 153.504C685.369 155.025 689.459 155.786 693.9 155.786Z" fill="black"/>
<path d="M763.594 80.8524H778.671V90.2218C781.71 86.478 785.274 84.6546 789.365 82.7827C793.456 80.9109 797.955 79.9749 802.864 79.9749C804.968 79.9749 807.013 80.1504 809 80.5014V96.1198C806.546 95.4178 803.741 95.0669 800.585 95.0669C795.793 95.0669 791.41 96.2368 787.437 98.5766C785.185 99.9425 783.252 102.022 781.638 104.425C779.34 107.846 778.671 112.042 778.671 116.163V168.596H763.594V80.8524Z" fill="black"/>
<path d="M60.1807 0L7.12793 30.6585L60.1807 61.4697L113.233 30.6585L60.1807 0Z" fill="black"/>
<path d="M0 104.208L52.9288 134.762V73.5829L0 43.0293V104.208Z" fill="black"/>
<path d="M0 181.895L52.9288 212.449V151.27L0 120.721V181.895Z" fill="black"/>
<path d="M120.358 104.208L67.4297 134.762V73.5829L120.358 43.0293V104.208Z" fill="black"/>
<path d="M141.999 108.228V169.411L67.4346 212.449V151.271L141.999 108.228Z" fill="black"/>
</svg>
